<mxfile host="app.diagrams.net" agent="Mozilla/5.0 (X11; Linux x86_64) AppleWebKit/537.36 (KHTML, like Gecko) Chrome/131.0.0.0 Safari/537.36" version="26.1.1">
  <diagram name="Page-1" id="sNWCH8WCY9XsCnJhhzTW">
    <mxGraphModel dx="782" dy="450" grid="1" gridSize="10" guides="1" tooltips="1" connect="1" arrows="1" fold="1" page="1" pageScale="1" pageWidth="850" pageHeight="1100" math="0" shadow="0">
      <root>
        <mxCell id="0" />
        <mxCell id="1" parent="0" />
        <mxCell id="vt7VQfZ9MeC5z4v0P5rx-1" value="&lt;font face=&quot;Helvetica&quot; style=&quot;font-size: 16px; color: rgb(0, 0, 0);&quot;&gt;&lt;b&gt;&lt;span style=&quot;background-color: rgb(255, 255, 255);&quot;&gt;&amp;nbsp;Karatsuba &lt;/span&gt;multiplication algorithm&amp;nbsp;:&lt;/b&gt;&lt;/font&gt;" style="text;html=1;align=left;verticalAlign=middle;whiteSpace=wrap;rounded=0;" parent="1" vertex="1">
          <mxGeometry x="40" y="200" width="320" height="40" as="geometry" />
        </mxCell>
        <mxCell id="vt7VQfZ9MeC5z4v0P5rx-2" value="&lt;font style=&quot;&quot;&gt;&lt;span&gt;&lt;span style=&quot;font-size: 16px;&quot;&gt;&amp;nbsp;&lt;/span&gt;&lt;span style=&quot;font-size: 16px;&quot;&gt;X&lt;/span&gt;&lt;span style=&quot;font-size: 16px;&quot;&gt; = X&lt;sub&gt;2&lt;/sub&gt;&lt;/span&gt;&lt;span style=&quot;font-size: 16px;&quot;&gt;&amp;nbsp;* 10&lt;sup&gt;N&lt;/sup&gt;&lt;/span&gt;&lt;span style=&quot;font-size: 16px;&quot;&gt;&amp;nbsp;+ &lt;/span&gt;&lt;span style=&quot;font-size: 16px;&quot;&gt;X&lt;sub style=&quot;&quot;&gt;1&lt;/sub&gt;&lt;/span&gt;&lt;/span&gt;&lt;/font&gt;" style="text;html=1;align=left;verticalAlign=middle;whiteSpace=wrap;rounded=0;fontStyle=0" parent="1" vertex="1">
          <mxGeometry x="40" y="240" width="140" height="40" as="geometry" />
        </mxCell>
        <mxCell id="vt7VQfZ9MeC5z4v0P5rx-3" value="&lt;font style=&quot;font-size: 16px;&quot;&gt;&lt;span&gt;&amp;nbsp;Y&amp;nbsp;= Y&lt;sub style=&quot;&quot;&gt;2&lt;/sub&gt;&amp;nbsp;* 10&lt;sup style=&quot;&quot;&gt;N&lt;/sup&gt; + Y&lt;sub style=&quot;&quot;&gt;1&lt;/sub&gt;&lt;/span&gt;&lt;/font&gt;" style="text;html=1;align=left;verticalAlign=middle;whiteSpace=wrap;rounded=0;fontStyle=0" parent="1" vertex="1">
          <mxGeometry x="40" y="270" width="140" height="40" as="geometry" />
        </mxCell>
        <mxCell id="vt7VQfZ9MeC5z4v0P5rx-4" value="&lt;span&gt;&lt;font style=&quot;font-size: 16px;&quot;&gt;&amp;nbsp;Z&amp;nbsp;=&amp;nbsp;X * Y =&amp;nbsp;&lt;/font&gt;&lt;span style=&quot;font-size: 16px;&quot;&gt;A&amp;nbsp;* 10&lt;sup&gt;2N&lt;/sup&gt;&amp;nbsp;+ (X&lt;sub&gt;2&lt;/sub&gt; * Y&lt;sub&gt;1&lt;/sub&gt; + X&lt;sub&gt;1&lt;/sub&gt; * Y&lt;sub&gt;2&lt;/sub&gt;) * 10&lt;sup&gt;N&lt;/sup&gt; +&amp;nbsp;&lt;/span&gt;&lt;span style=&quot;font-size: 16px;&quot;&gt;B&lt;/span&gt;&lt;/span&gt;" style="text;html=1;align=left;verticalAlign=middle;whiteSpace=wrap;rounded=0;fontStyle=0" parent="1" vertex="1">
          <mxGeometry x="40" y="380" width="380" height="40" as="geometry" />
        </mxCell>
        <mxCell id="vt7VQfZ9MeC5z4v0P5rx-5" value="&lt;font style=&quot;font-size: 16px;&quot;&gt;&lt;span&gt;&amp;nbsp;Z&amp;nbsp;=&amp;nbsp;X * Y = A&amp;nbsp;* 10&lt;sup&gt;2N&lt;/sup&gt; + (C - B - A) * 10&lt;sup&gt;N&lt;/sup&gt; + B&lt;/span&gt;&lt;/font&gt;" style="text;html=1;align=left;verticalAlign=middle;whiteSpace=wrap;rounded=0;fontStyle=0" parent="1" vertex="1">
          <mxGeometry x="40" y="460" width="320" height="40" as="geometry" />
        </mxCell>
        <mxCell id="vt7VQfZ9MeC5z4v0P5rx-6" value="&lt;span style=&quot;font-size: 16px;&quot;&gt;&lt;span&gt;&amp;nbsp;A = X&lt;sub&gt;2&lt;/sub&gt; * Y&lt;sub&gt;2&lt;/sub&gt;&lt;/span&gt;&lt;/span&gt;" style="text;html=1;align=left;verticalAlign=middle;whiteSpace=wrap;rounded=0;fontStyle=0" parent="1" vertex="1">
          <mxGeometry x="41" y="310" width="99" height="40" as="geometry" />
        </mxCell>
        <mxCell id="vt7VQfZ9MeC5z4v0P5rx-7" value="&lt;span&gt;&lt;span style=&quot;font-size: 16px;&quot;&gt;&amp;nbsp;&lt;/span&gt;&lt;span style=&quot;font-size: 16px;&quot;&gt;B&lt;/span&gt;&lt;span style=&quot;font-size: 16px;&quot;&gt;&amp;nbsp;= X&lt;sub&gt;1&lt;/sub&gt;&lt;/span&gt;&lt;span style=&quot;font-size: 16px;&quot;&gt;&amp;nbsp;* Y&lt;sub&gt;1&lt;/sub&gt;&lt;/span&gt;&lt;/span&gt;" style="text;html=1;align=left;verticalAlign=middle;whiteSpace=wrap;rounded=0;fontStyle=0" parent="1" vertex="1">
          <mxGeometry x="40" y="340" width="100" height="40" as="geometry" />
        </mxCell>
        <mxCell id="vt7VQfZ9MeC5z4v0P5rx-8" value="&lt;span&gt;&lt;span style=&quot;font-size: 16px;&quot;&gt;&amp;nbsp;C&lt;/span&gt;&lt;span style=&quot;font-size: 16px;&quot;&gt;&amp;nbsp;= (X&lt;sub&gt;2&lt;/sub&gt; + X&lt;sub&gt;1&lt;/sub&gt;) * (Y&lt;sub&gt;2&lt;/sub&gt; + Y&lt;sub&gt;1&lt;/sub&gt;)&lt;/span&gt;&lt;/span&gt;" style="text;html=1;align=left;verticalAlign=middle;whiteSpace=wrap;rounded=0;fontStyle=0" parent="1" vertex="1">
          <mxGeometry x="40" y="420" width="190" height="40" as="geometry" />
        </mxCell>
        <mxCell id="UcWCv93GQWhGsIWvlA-d-1" value="&lt;font style=&quot;font-size: 16px;&quot;&gt;len(X&lt;sub&gt;2&lt;/sub&gt;) = len(X&lt;sub&gt;1&lt;/sub&gt;)&lt;/font&gt;" style="text;html=1;align=center;verticalAlign=middle;whiteSpace=wrap;rounded=0;" vertex="1" parent="1">
          <mxGeometry x="180" y="240" width="140" height="40" as="geometry" />
        </mxCell>
        <mxCell id="UcWCv93GQWhGsIWvlA-d-2" value="&lt;font style=&quot;font-size: 16px;&quot;&gt;len(Y&lt;sub&gt;2&lt;/sub&gt;) = len(Y&lt;sub&gt;1&lt;/sub&gt;)&lt;/font&gt;" style="text;html=1;align=center;verticalAlign=middle;whiteSpace=wrap;rounded=0;" vertex="1" parent="1">
          <mxGeometry x="180" y="270" width="140" height="40" as="geometry" />
        </mxCell>
      </root>
    </mxGraphModel>
  </diagram>
</mxfile>
